<svg width="168" height="47" viewBox="0 0 168 47" fill="none" xmlns="http://www.w3.org/2000/svg">
<path d="M73.47 23V8.3H76.893L82.983 18.296H81.177L87.099 8.3H90.522L90.564 23H86.742L86.7 14.117H87.351L82.92 21.551H81.072L76.515 14.117H77.313V23H73.47ZM99.2811 23.189C97.9371 23.189 96.7611 22.937 95.7531 22.433C94.7591 21.915 93.9821 21.215 93.4221 20.333C92.8761 19.437 92.6031 18.422 92.6031 17.288C92.6031 16.154 92.8691 15.146 93.4011 14.264C93.9471 13.368 94.6961 12.675 95.6481 12.185C96.6001 11.681 97.6711 11.429 98.8611 11.429C99.9811 11.429 101.003 11.66 101.927 12.122C102.851 12.57 103.586 13.235 104.132 14.117C104.678 14.999 104.951 16.07 104.951 17.33C104.951 17.47 104.944 17.631 104.93 17.813C104.916 17.995 104.902 18.163 104.888 18.317H95.8791V16.217H102.767L101.255 16.805C101.269 16.287 101.171 15.839 100.961 15.461C100.765 15.083 100.485 14.789 100.121 14.579C99.7711 14.369 99.3581 14.264 98.8821 14.264C98.4061 14.264 97.9861 14.369 97.6221 14.579C97.2721 14.789 96.9991 15.09 96.8031 15.482C96.6071 15.86 96.5091 16.308 96.5091 16.826V17.435C96.5091 17.995 96.6211 18.478 96.8451 18.884C97.0831 19.29 97.4191 19.605 97.8531 19.829C98.2871 20.039 98.8051 20.144 99.4071 20.144C99.9671 20.144 100.443 20.067 100.835 19.913C101.241 19.745 101.64 19.493 102.032 19.157L104.132 21.341C103.586 21.943 102.914 22.405 102.116 22.727C101.318 23.035 100.373 23.189 99.2811 23.189ZM111.873 23.189C110.417 23.189 109.283 22.832 108.471 22.118C107.659 21.39 107.253 20.298 107.253 18.842V9.077H111.243V18.8C111.243 19.206 111.355 19.528 111.579 19.766C111.803 19.99 112.09 20.102 112.44 20.102C112.916 20.102 113.322 19.983 113.658 19.745L114.645 22.538C114.309 22.762 113.896 22.923 113.406 23.021C112.916 23.133 112.405 23.189 111.873 23.189ZM105.594 15.02V12.038H113.847V15.02H105.594ZM116.372 23V8.3H123.092C124.436 8.3 125.591 8.517 126.557 8.951C127.537 9.385 128.293 10.015 128.825 10.841C129.357 11.653 129.623 12.619 129.623 13.739C129.623 14.845 129.357 15.804 128.825 16.616C128.293 17.414 127.537 18.03 126.557 18.464C125.591 18.884 124.436 19.094 123.092 19.094H118.682L120.53 17.351V23H116.372ZM125.465 23L121.811 17.645H126.242L129.917 23H125.465ZM120.53 17.792L118.682 15.881H122.84C123.708 15.881 124.352 15.692 124.772 15.314C125.206 14.936 125.423 14.411 125.423 13.739C125.423 13.053 125.206 12.521 124.772 12.143C124.352 11.765 123.708 11.576 122.84 11.576H118.682L120.53 9.665V17.792ZM137.44 23.189C136.194 23.189 135.088 22.937 134.122 22.433C133.156 21.929 132.393 21.236 131.833 20.354C131.287 19.458 131.014 18.436 131.014 17.288C131.014 16.14 131.287 15.125 131.833 14.243C132.393 13.361 133.156 12.675 134.122 12.185C135.088 11.681 136.194 11.429 137.44 11.429C138.686 11.429 139.792 11.681 140.758 12.185C141.738 12.675 142.501 13.361 143.047 14.243C143.593 15.125 143.866 16.14 143.866 17.288C143.866 18.436 143.593 19.458 143.047 20.354C142.501 21.236 141.738 21.929 140.758 22.433C139.792 22.937 138.686 23.189 137.44 23.189ZM137.44 20.018C137.902 20.018 138.308 19.913 138.658 19.703C139.022 19.493 139.309 19.185 139.519 18.779C139.729 18.359 139.834 17.862 139.834 17.288C139.834 16.714 139.729 16.231 139.519 15.839C139.309 15.433 139.022 15.125 138.658 14.915C138.308 14.705 137.902 14.6 137.44 14.6C136.992 14.6 136.586 14.705 136.222 14.915C135.872 15.125 135.585 15.433 135.361 15.839C135.151 16.231 135.046 16.714 135.046 17.288C135.046 17.862 135.151 18.359 135.361 18.779C135.585 19.185 135.872 19.493 136.222 19.703C136.586 19.913 136.992 20.018 137.44 20.018ZM151.427 23.189C150.181 23.189 149.075 22.937 148.109 22.433C147.143 21.929 146.38 21.236 145.82 20.354C145.274 19.458 145.001 18.436 145.001 17.288C145.001 16.14 145.274 15.125 145.82 14.243C146.38 13.361 147.143 12.675 148.109 12.185C149.075 11.681 150.181 11.429 151.427 11.429C152.673 11.429 153.779 11.681 154.745 12.185C155.725 12.675 156.488 13.361 157.034 14.243C157.58 15.125 157.853 16.14 157.853 17.288C157.853 18.436 157.58 19.458 157.034 20.354C156.488 21.236 155.725 21.929 154.745 22.433C153.779 22.937 152.673 23.189 151.427 23.189ZM151.427 20.018C151.889 20.018 152.295 19.913 152.645 19.703C153.009 19.493 153.296 19.185 153.506 18.779C153.716 18.359 153.821 17.862 153.821 17.288C153.821 16.714 153.716 16.231 153.506 15.839C153.296 15.433 153.009 15.125 152.645 14.915C152.295 14.705 151.889 14.6 151.427 14.6C150.979 14.6 150.573 14.705 150.209 14.915C149.859 15.125 149.572 15.433 149.348 15.839C149.138 16.231 149.033 16.714 149.033 17.288C149.033 17.862 149.138 18.359 149.348 18.779C149.572 19.185 149.859 19.493 150.209 19.703C150.573 19.913 150.979 20.018 151.427 20.018ZM164.783 23.189C163.327 23.189 162.193 22.832 161.381 22.118C160.569 21.39 160.163 20.298 160.163 18.842V9.077H164.153V18.8C164.153 19.206 164.265 19.528 164.489 19.766C164.713 19.99 165 20.102 165.35 20.102C165.826 20.102 166.232 19.983 166.568 19.745L167.555 22.538C167.219 22.762 166.806 22.923 166.316 23.021C165.826 23.133 165.315 23.189 164.783 23.189ZM158.504 15.02V12.038H166.757V15.02H158.504Z" fill="white"/>
<path d="M73.824 40V28.8H74.8L79.92 37.536H79.408L84.48 28.8H85.456V40H84.32V30.576H84.592L79.92 38.576H79.36L74.656 30.576H74.96V40H73.824ZM94.1293 40V38.144L94.0813 37.84V34.736C94.0813 34.0213 93.8786 33.472 93.4733 33.088C93.0786 32.704 92.4866 32.512 91.6973 32.512C91.1533 32.512 90.6359 32.6027 90.1453 32.784C89.6546 32.9653 89.2386 33.2053 88.8973 33.504L88.3853 32.656C88.8119 32.2933 89.3239 32.016 89.9213 31.824C90.5186 31.6213 91.1479 31.52 91.8093 31.52C92.8973 31.52 93.7346 31.792 94.3213 32.336C94.9186 32.8693 95.2173 33.6853 95.2173 34.784V40H94.1293ZM91.2333 40.08C90.6039 40.08 90.0546 39.9787 89.5853 39.776C89.1266 39.5627 88.7746 39.2747 88.5293 38.912C88.2839 38.5387 88.1613 38.112 88.1613 37.632C88.1613 37.1947 88.2626 36.8 88.4653 36.448C88.6786 36.0853 89.0199 35.7973 89.4893 35.584C89.9693 35.36 90.6093 35.248 91.4093 35.248H94.3053V36.096H91.4413C90.6306 36.096 90.0653 36.24 89.7453 36.528C89.4359 36.816 89.2812 37.1733 89.2812 37.6C89.2812 38.08 89.4679 38.464 89.8413 38.752C90.2146 39.04 90.7373 39.184 91.4093 39.184C92.0493 39.184 92.5986 39.04 93.0573 38.752C93.5266 38.4533 93.8679 38.0267 94.0813 37.472L94.3373 38.256C94.1239 38.8107 93.7506 39.2533 93.2173 39.584C92.6946 39.9147 92.0333 40.08 91.2333 40.08ZM98.3028 40V31.6H99.3908V33.888L99.2788 33.488C99.5134 32.848 99.9081 32.3627 100.463 32.032C101.017 31.6907 101.705 31.52 102.527 31.52V32.624C102.484 32.624 102.441 32.624 102.399 32.624C102.356 32.6133 102.313 32.608 102.271 32.608C101.385 32.608 100.692 32.88 100.191 33.424C99.6894 33.9573 99.4388 34.72 99.4388 35.712V40H98.3028ZM105.496 37.824L105.528 36.368L110.76 31.6H112.152L108.456 35.136L107.816 35.68L105.496 37.824ZM104.6 40V28.128H105.736V40H104.6ZM111.112 40L107.608 35.632L108.344 34.752L112.504 40H111.112ZM117.433 40.08C116.559 40.08 115.791 39.8987 115.129 39.536C114.468 39.1627 113.951 38.656 113.577 38.016C113.204 37.3653 113.017 36.624 113.017 35.792C113.017 34.96 113.193 34.224 113.545 33.584C113.908 32.944 114.399 32.4427 115.017 32.08C115.647 31.7067 116.351 31.52 117.129 31.52C117.919 31.52 118.617 31.7013 119.225 32.064C119.844 32.416 120.329 32.9173 120.681 33.568C121.033 34.208 121.209 34.9493 121.209 35.792C121.209 35.8453 121.204 35.904 121.193 35.968C121.193 36.0213 121.193 36.08 121.193 36.144H113.881V35.296H120.585L120.137 35.632C120.137 35.024 120.004 34.4853 119.737 34.016C119.481 33.536 119.129 33.1627 118.681 32.896C118.233 32.6293 117.716 32.496 117.129 32.496C116.553 32.496 116.036 32.6293 115.577 32.896C115.119 33.1627 114.761 33.536 114.505 34.016C114.249 34.496 114.121 35.0453 114.121 35.664V35.84C114.121 36.48 114.26 37.0453 114.537 37.536C114.825 38.016 115.22 38.3947 115.721 38.672C116.233 38.9387 116.815 39.072 117.465 39.072C117.977 39.072 118.452 38.9813 118.889 38.8C119.337 38.6187 119.721 38.3413 120.041 37.968L120.681 38.704C120.308 39.152 119.839 39.4933 119.273 39.728C118.719 39.9627 118.105 40.08 117.433 40.08ZM126.178 40.08C125.388 40.08 124.78 39.8667 124.354 39.44C123.927 39.0133 123.714 38.4107 123.714 37.632V29.744H124.85V37.568C124.85 38.0587 124.972 38.4373 125.218 38.704C125.474 38.9707 125.836 39.104 126.306 39.104C126.807 39.104 127.223 38.96 127.554 38.672L127.954 39.488C127.73 39.6907 127.458 39.84 127.138 39.936C126.828 40.032 126.508 40.08 126.178 40.08ZM122.21 32.544V31.6H127.41V32.544H122.21ZM130.022 40V31.6H131.158V40H130.022ZM130.598 29.744C130.363 29.744 130.166 29.664 130.006 29.504C129.846 29.344 129.766 29.152 129.766 28.928C129.766 28.704 129.846 28.5173 130.006 28.368C130.166 28.208 130.363 28.128 130.598 28.128C130.832 28.128 131.03 28.2027 131.19 28.352C131.35 28.5013 131.43 28.688 131.43 28.912C131.43 29.1467 131.35 29.344 131.19 29.504C131.04 29.664 130.843 29.744 130.598 29.744ZM138.606 31.52C139.289 31.52 139.886 31.6533 140.398 31.92C140.921 32.176 141.326 32.5707 141.614 33.104C141.913 33.6373 142.062 34.3093 142.062 35.12V40H140.926V35.232C140.926 34.3467 140.702 33.68 140.254 33.232C139.817 32.7733 139.198 32.544 138.398 32.544C137.801 32.544 137.278 32.6667 136.83 32.912C136.393 33.1467 136.052 33.4933 135.806 33.952C135.572 34.4 135.454 34.944 135.454 35.584V40H134.318V31.6H135.406V33.904L135.23 33.472C135.497 32.864 135.924 32.3893 136.51 32.048C137.097 31.696 137.796 31.52 138.606 31.52ZM148.715 43.184C147.947 43.184 147.211 43.072 146.507 42.848C145.803 42.624 145.232 42.304 144.795 41.888L145.371 41.024C145.766 41.376 146.251 41.6533 146.827 41.856C147.414 42.0693 148.032 42.176 148.683 42.176C149.75 42.176 150.534 41.9253 151.035 41.424C151.536 40.9333 151.787 40.1653 151.787 39.12V37.024L151.947 35.584L151.835 34.144V31.6H152.923V38.976C152.923 40.4267 152.566 41.488 151.851 42.16C151.147 42.8427 150.102 43.184 148.715 43.184ZM148.507 39.68C147.707 39.68 146.987 39.5093 146.347 39.168C145.707 38.816 145.2 38.3307 144.827 37.712C144.464 37.0933 144.283 36.384 144.283 35.584C144.283 34.784 144.464 34.08 144.827 33.472C145.2 32.8533 145.707 32.3733 146.347 32.032C146.987 31.6907 147.707 31.52 148.507 31.52C149.254 31.52 149.926 31.6747 150.523 31.984C151.12 32.2933 151.595 32.752 151.947 33.36C152.299 33.968 152.475 34.7093 152.475 35.584C152.475 36.4587 152.299 37.2 151.947 37.808C151.595 38.416 151.12 38.88 150.523 39.2C149.926 39.52 149.254 39.68 148.507 39.68ZM148.619 38.672C149.238 38.672 149.787 38.544 150.267 38.288C150.747 38.0213 151.126 37.6587 151.403 37.2C151.68 36.7307 151.819 36.192 151.819 35.584C151.819 34.976 151.68 34.4427 151.403 33.984C151.126 33.5253 150.747 33.168 150.267 32.912C149.787 32.6453 149.238 32.512 148.619 32.512C148.011 32.512 147.462 32.6453 146.971 32.912C146.491 33.168 146.112 33.5253 145.835 33.984C145.568 34.4427 145.435 34.976 145.435 35.584C145.435 36.192 145.568 36.7307 145.835 37.2C146.112 37.6587 146.491 38.0213 146.971 38.288C147.462 38.544 148.011 38.672 148.619 38.672Z" fill="white"/>
<g clip-path="url(#clip0_2028_43)">
<path fill-rule="evenodd" clip-rule="evenodd" d="M23.3925 23.1275L30.9994 9.95546L27.2499 3.4625C24.5843 -1.15341 17.957 -1.15232 15.2915 3.4625L0.0864258 29.7923L9.81571 46.639L23.3936 23.1285L23.3925 23.1275Z" fill="white"/>
<path fill-rule="evenodd" clip-rule="evenodd" d="M41.7519 46.6379H20.2471L30.9995 28.0186L41.7519 46.6379Z" fill="white"/>
<path fill-rule="evenodd" clip-rule="evenodd" d="M38.6064 23.1275L30.9995 9.95546L34.7491 3.4625C37.4135 -1.15341 44.0419 -1.15232 46.7074 3.4625L61.9125 29.7923L52.1843 46.639L38.6064 23.1285V23.1275Z" fill="white"/>
</g>
<defs>
<clipPath id="clip0_2028_43">
<rect width="62" height="47" fill="white"/>
</clipPath>
</defs>
</svg>
